<svg width="48" height="48" viewBox="0 0 48 48" fill="none" xmlns="http://www.w3.org/2000/svg">
<path d="M48 24C48 10.7452 37.2548 0 24 0C10.7452 0 0 10.7452 0 24C0 37.2548 10.7452 48 24 48C37.2548 48 48 37.2548 48 24Z" fill="white"/>
<path d="M23.5 9C14.9529 9 8 15.9529 8 24.5C8 33.0471 14.9529 40 23.5 40C32.0471 40 39 33.0471 39 24.5C39 15.9529 32.0471 9 23.5 9ZM28.3695 29.2348C27.9013 29.9171 27.288 30.429 26.484 30.8111C25.8909 31.074 25.2735 31.2355 24.6358 31.2955V33.3789C24.6358 33.697 24.3786 33.9533 24.0614 33.9533H22.3423C22.0242 33.9533 21.7679 33.6962 21.7679 33.3789V31.1154C21.4441 31.0359 21.1253 30.9247 20.8057 30.7787C19.9465 30.4282 19.2536 29.8571 18.7677 29.0887C18.2801 28.3756 18.018 27.5424 17.9774 26.5583C17.9645 26.2467 18.2022 25.9823 18.5129 25.9612L20.0568 25.8557C20.3675 25.8378 20.6304 26.0577 20.6669 26.3611C20.7286 26.8779 20.8738 27.3055 21.088 27.5976C21.3289 27.9594 21.6381 28.1971 22.1054 28.3886C23.0952 28.8243 24.3543 28.8251 25.2256 28.49C25.6118 28.3245 25.8852 28.1347 26.0662 27.901C26.2211 27.6787 26.2974 27.445 26.2974 27.166C26.2974 26.9039 26.23 26.7108 26.067 26.5015C25.9818 26.3879 25.7619 26.1753 25.1835 25.9441C24.9011 25.8508 24.1677 25.6423 23.0513 25.3722C21.7476 25.0468 20.9931 24.8002 20.5249 24.5462C19.828 24.1779 19.3047 23.7187 18.9762 23.1841C18.6395 22.6397 18.4691 22.0182 18.4691 21.3383C18.4691 20.5984 18.676 19.8934 19.0833 19.2427C19.5051 18.6083 20.1274 18.1102 20.8917 17.7889C21.1472 17.6729 21.4377 17.5755 21.7687 17.4976V15.5821C21.7687 15.2641 22.0259 15.0077 22.3431 15.0077H24.0622C24.3803 15.0077 24.6366 15.2649 24.6366 15.5821V17.3962C25.1534 17.4822 25.6321 17.6128 26.0662 17.7856C26.9059 18.1629 27.5152 18.6683 27.95 19.3409C28.3857 19.9753 28.6315 20.7372 28.6745 21.5915C28.6899 21.9046 28.4514 22.1724 28.1382 22.1935L26.5578 22.2997C26.2528 22.3208 25.9907 22.1034 25.9493 21.804C25.8609 21.1558 25.6443 20.7031 25.2865 20.4216C24.88 20.0751 24.2902 19.9137 23.4659 19.9137C22.6587 19.9137 22.0104 20.0703 21.6397 20.3559C21.3387 20.5879 21.1975 20.867 21.1975 21.2337C21.1975 21.516 21.2859 21.7375 21.4604 21.8933C21.5529 21.9663 22.0575 22.2949 23.689 22.6381C25.0366 22.9561 26.0272 23.2457 26.57 23.4794C27.4348 23.8688 28.053 24.371 28.4157 24.9746C28.8205 25.5807 29.0242 26.2589 29.0242 27.0248C29.0242 27.8215 28.8043 28.5646 28.3695 29.2348Z" fill="#12DABA"/>
</svg>
