<svg width="48" height="48" viewBox="0 0 48 48" fill="none" xmlns="http://www.w3.org/2000/svg">
<path d="M48 24C48 10.7452 37.2548 0 24 0C10.7452 0 0 10.7452 0 24C0 37.2548 10.7452 48 24 48C37.2548 48 48 37.2548 48 24Z" fill="white"/>
<path d="M23.5 8C19.1239 8 14.9271 9.73839 11.8327 12.8327C8.73839 15.9271 7 20.1239 7 24.5C7 28.8761 8.73839 33.0729 11.8327 36.1673C14.9271 39.2616 19.1239 41 23.5 41C27.8761 41 32.0729 39.2616 35.1673 36.1673C38.2616 33.0729 40 28.8761 40 24.5C40 20.1239 38.2616 15.9271 35.1673 12.8327C32.0729 9.73839 27.8761 8 23.5 8ZM23.5 15.6607C28.3746 15.6607 32.3393 19.6254 32.3393 24.5C32.3393 29.3746 28.3746 33.3393 23.5 33.3393C18.6254 33.3393 14.6607 29.3746 14.6607 24.5C14.6607 19.6254 18.6254 15.6607 23.5 15.6607ZM23.5 16.8393C22.9531 16.8393 22.4204 16.897 21.9066 17.0043C21.6454 17.3953 21.4287 17.8144 21.2607 18.2536H25.7393C25.611 17.8247 25.4276 17.4142 25.1936 17.0326C24.638 16.9057 24.07 16.8408 23.5 16.8393ZM26.5879 17.4875C26.747 17.9035 26.9061 18.2536 27.0357 18.2536H27.9291C27.5087 17.9534 27.0589 17.6967 26.5867 17.4875H26.5879ZM20.332 17.5276C19.8895 17.7285 19.4672 17.9712 19.0709 18.2524H19.9643C20.0821 18.2524 20.1988 17.9259 20.332 17.5276ZM17.7627 19.431C17.1491 20.1238 16.6667 20.9225 16.339 21.7881H19.2571C19.2571 21.7881 19.375 20.6095 19.6107 19.431H17.7627ZM20.7881 19.431C20.6703 20.6095 20.4357 21.7881 20.4357 21.7881H26.5643C26.4464 21.7881 26.3286 20.6095 26.0929 19.431H20.7881ZM27.3905 19.431C27.5083 20.6095 27.625 21.7881 27.7429 21.7881H30.661C30.333 20.9225 29.8502 20.1237 29.2361 19.431H27.3905ZM15.9913 22.9667C15.8356 23.7423 15.7998 24.5373 15.8853 25.3238H19.1405V22.9667H15.9913ZM20.319 22.9667V25.3238H26.681V22.9667H20.319ZM27.8595 22.9667V25.3238H31.1148C31.2002 24.5373 31.1644 23.7423 31.0087 22.9667H27.8595ZM16.1104 26.5024C16.3414 27.3569 16.7114 28.1524 17.2017 28.8595H19.6107C19.4929 28.8595 19.3762 27.681 19.2583 26.5024H16.1104ZM20.3179 26.5024C20.4357 27.681 20.5536 28.8595 20.7893 28.8595H26.2107C26.3286 28.8595 26.5643 27.681 26.5643 26.5024H20.3179ZM27.7429 26.5024C27.7429 27.681 27.5071 28.8595 27.3893 28.8595H29.7983C30.2886 28.1524 30.6586 27.3569 30.8896 26.5024H27.7429ZM18.2129 30.0381C18.88 30.6757 19.6567 31.1978 20.5217 31.562C20.3273 31.2285 20.1234 30.8336 19.9643 30.0381H18.2129ZM21.1429 30.0381C21.5 30.9303 21.8559 31.6174 22.2637 32.0535C22.6668 32.1183 23.0781 32.1607 23.5 32.1607C23.8901 32.1607 24.272 32.123 24.6467 32.0664C25.0416 31.582 25.3916 30.9079 25.7393 30.0393H21.1429V30.0381ZM26.9179 30.0381C26.747 30.8937 26.5584 31.2556 26.3427 31.6127C27.2508 31.2491 28.0806 30.7146 28.7871 30.0381H26.9179Z" fill="#12DABA"/>
</svg>
