<svg width="48" height="48" viewBox="0 0 48 48" fill="none" xmlns="http://www.w3.org/2000/svg">
<path d="M48 24C48 10.7452 37.2548 0 24 0C10.7452 0 0 10.7452 0 24C0 37.2548 10.7452 48 24 48C37.2548 48 48 37.2548 48 24Z" fill="white"/>
<path fill-rule="evenodd" clip-rule="evenodd" d="M23.5 9C19.3891 9 15.4467 10.633 12.5398 13.5398C9.63303 16.4467 8 20.3891 8 24.5C8 28.6109 9.63303 32.5533 12.5398 35.4602C15.4467 38.367 19.3891 40 23.5 40C27.6109 40 31.5533 38.367 34.4602 35.4602C37.367 32.5533 39 28.6109 39 24.5C39 20.3891 37.367 16.4467 34.4602 13.5398C31.5533 10.633 27.6109 9 23.5 9ZM15.44 20.16H29.08V22.175L32.8 20.4068V29.8407L29.08 28.0551V30.08H15.44V20.16ZM16.68 21.4V28.84H27.84V21.4H16.68ZM31.56 22.3684L29.08 23.5477V26.6799L31.56 27.8691V22.3672V22.3684Z" fill="#12DABA"/>
</svg>
