<svg width="48" height="48" viewBox="0 0 48 48" fill="none" xmlns="http://www.w3.org/2000/svg">
<path d="M48 24C48 10.7452 37.2548 0 24 0C10.7452 0 0 10.7452 0 24C0 37.2548 10.7452 48 24 48C37.2548 48 48 37.2548 48 24Z" fill="white"/>
<path d="M23.5 9C14.9392 9 8 15.9392 8 24.5C8 33.0608 14.9392 40 23.5 40C32.0608 40 39 33.0608 39 24.5L38.4778 20.476C37.5926 17.1812 35.645 14.2705 32.9369 12.1956C30.2288 10.1206 26.9116 8.99737 23.5 9ZM22.9038 15.5577H24.0962V16.75H22.9038V15.5577ZM18.0225 17.5703L18.8798 18.4264L18.0225 19.2467L17.1653 18.4264L18.0225 17.5703ZM28.9775 17.5703L29.8335 18.4264L28.9775 19.2467L28.1202 18.4264L28.9775 17.5703ZM23.5358 19.1346C26.1946 19.1346 28.305 21.1258 28.305 23.5318C28.305 25.2774 27.4942 26.3779 26.6286 27.4068C26.1958 27.9195 25.7702 28.4155 25.3993 28.933C25.0297 29.4528 24.7281 30.0371 24.7281 30.7215V31.2437C24.6923 31.2318 24.653 31.2437 24.616 31.2437H24.0962V26.2885H24.6923V25.0962H22.3077V26.2885H22.9038V31.2437H22.3458V30.7227C22.3458 30.0371 22.0442 29.4505 21.6746 28.9342C21.305 28.4179 20.84 27.9183 20.4072 27.4057C19.5427 26.3827 18.7677 25.2953 18.7677 23.5307C18.7677 21.1258 20.8781 19.1346 23.537 19.1346H23.5358ZM15.1538 22.7115H16.3462V23.9038H15.1538V22.7115ZM30.6538 22.7115H31.8462V23.9038H30.6538V22.7115ZM22.3447 32.436H24.6184C24.6542 32.436 24.6935 32.4479 24.7293 32.436V33.4423H22.3447V32.436Z" fill="#12DABA"/>
</svg>
