<svg width="21" height="21" viewBox="0 0 21 21" fill="none" xmlns="http://www.w3.org/2000/svg">
<path d="M10.5 0C4.71002 0 0 4.71002 0 10.5C0 16.29 4.71002 21 10.5 21C16.29 21 21 16.29 21 10.5C21 4.71002 16.29 0 10.5 0ZM13.7987 13.7074C13.4815 14.1696 13.0661 14.5164 12.5214 14.7753C12.1197 14.9534 11.7014 15.0627 11.2694 15.1034V16.5148C11.2694 16.7302 11.0952 16.9039 10.8803 16.9039H9.71573C9.50029 16.9039 9.32662 16.7297 9.32662 16.5148V14.9814C9.10733 14.9275 8.89134 14.8522 8.6748 14.7533C8.09278 14.5159 7.62342 14.129 7.29422 13.6085C6.96391 13.1254 6.78639 12.561 6.75891 11.8943C6.75012 11.6833 6.91115 11.5041 7.12164 11.4898L8.16752 11.4184C8.37802 11.4063 8.55608 11.5552 8.58082 11.7608C8.62259 12.1109 8.72096 12.4005 8.86606 12.5984C9.02928 12.8435 9.23868 13.0045 9.55525 13.1342C10.2258 13.4293 11.0787 13.4299 11.669 13.2029C11.9306 13.0908 12.1158 12.9622 12.2384 12.8039C12.3433 12.6533 12.395 12.495 12.395 12.306C12.395 12.1284 12.3494 11.9976 12.2389 11.8558C12.1812 11.7789 12.0323 11.6349 11.6404 11.4783C11.4491 11.4151 10.9523 11.2738 10.1961 11.0908C9.31288 10.8704 8.80175 10.7033 8.48464 10.5313C8.01254 10.2818 7.65805 9.97074 7.43546 9.60856C7.20738 9.23978 7.09197 8.81879 7.09197 8.35823C7.09197 7.857 7.23211 7.3794 7.50801 6.93863C7.7938 6.50885 8.21534 6.17139 8.73305 5.95376C8.90618 5.87516 9.10293 5.80921 9.32716 5.75645V4.45886C9.32716 4.24342 9.50139 4.06975 9.71628 4.06975H10.8809C11.0963 4.06975 11.27 4.24397 11.27 4.45886V5.68775C11.6201 5.74601 11.9443 5.83449 12.2384 5.95156C12.8072 6.20712 13.2199 6.54952 13.5145 7.00513C13.8097 7.43491 13.9762 7.95098 14.0053 8.5297C14.0158 8.74185 13.8542 8.92321 13.642 8.9375L12.5714 9.0095C12.3648 9.02379 12.1873 8.8765 12.1592 8.6737C12.0993 8.23457 11.9526 7.9279 11.7102 7.73719C11.4349 7.50251 11.0353 7.39314 10.4769 7.39314C9.93007 7.39314 9.49095 7.49921 9.23978 7.69267C9.03588 7.84986 8.94025 8.03892 8.94025 8.28733C8.94025 8.47859 9.00016 8.62863 9.11832 8.73415C9.18097 8.78362 9.52282 9.0062 10.6281 9.23868C11.5409 9.45412 12.212 9.65033 12.5797 9.80861C13.1655 10.0724 13.5843 10.4126 13.83 10.8215C14.1042 11.2321 14.2422 11.6915 14.2422 12.2103C14.2422 12.75 14.0932 13.2535 13.7987 13.7074Z" fill="#12DABA"/>
</svg>
